<?xml version="1.0" encoding="utf-8"?>
<!-- Generator: Adobe Illustrator 16.0.3, SVG Export Plug-In . SVG Version: 6.00 Build 0)  -->
<!DOCTYPE svg PUBLIC "-//W3C//DTD SVG 1.1//EN" "http://www.w3.org/Graphics/SVG/1.1/DTD/svg11.dtd">
<svg version="1.1" id="Layer_1" xmlns="http://www.w3.org/2000/svg" xmlns:xlink="http://www.w3.org/1999/xlink" x="0px" y="0px"
	 width="200px" height="60px" viewBox="0 0 200 60" enable-background="new 0 0 200 60" xml:space="preserve">
<g id="outlined_black">
	<path fill="#1E1E1E" d="M32.221,16.347c3.806,0,6.578,1.031,8.313,3.091c1.26,1.499,1.889,3.425,1.889,5.777
		c0,2.329-0.629,4.242-1.889,5.739c-1.734,2.033-4.506,3.051-8.313,3.051h-5.287v-4.093h4.995c1.399,0,2.561-0.334,3.484-1.004
		c1.176-0.83,1.764-2.075,1.764-3.732c0-3.158-1.723-4.736-5.164-4.736h-7.766V45H19V16.347H32.221z"/>
	<g>
		<path fill="#1E1E1E" d="M62.989,34.606c0-0.142-0.01-0.275-0.014-0.415c-0.007-0.227-0.01-0.454-0.027-0.675
			c-0.016-0.227-0.046-0.448-0.074-0.669c-0.017-0.137-0.028-0.271-0.048-0.404c-0.034-0.211-0.078-0.414-0.122-0.619
			c-0.029-0.143-0.055-0.283-0.089-0.418c-0.044-0.18-0.097-0.352-0.148-0.524c-0.051-0.163-0.096-0.327-0.152-0.486
			c-0.051-0.137-0.104-0.271-0.157-0.406c-0.079-0.193-0.157-0.383-0.245-0.569c-0.045-0.095-0.092-0.186-0.139-0.278
			c-0.118-0.229-0.239-0.456-0.376-0.675c-0.027-0.043-0.052-0.086-0.081-0.129c-0.245-0.387-0.508-0.765-0.805-1.117l-0.02,0.02
			c-0.132-0.154-0.259-0.313-0.402-0.459c-0.44-0.458-0.926-0.842-1.437-1.197l0.011-0.009c-0.188-0.129-0.387-0.243-0.58-0.359
			c-0.204-0.118-0.408-0.23-0.621-0.334c-0.247-0.124-0.5-0.239-0.759-0.343c-0.151-0.061-0.303-0.12-0.461-0.172
			c-0.398-0.139-0.802-0.263-1.226-0.358c-0.111-0.023-0.218-0.05-0.331-0.072c-0.18-0.035-0.362-0.063-0.547-0.09
			c-0.192-0.029-0.387-0.053-0.586-0.073c-0.143-0.016-0.284-0.032-0.424-0.041c-0.357-0.024-0.723-0.042-1.099-0.042
			c-3.386,0-6.072,1.029-8.059,3.091c-1.295,1.327-2.145,2.952-2.571,4.861c-0.21,0.925-0.324,1.908-0.324,2.964
			c0,0.009,0.001,0.013,0.001,0.019c0,0.008-0.001,0.014-0.001,0.021c0,1.056,0.113,2.04,0.324,2.964
			c0.426,1.909,1.276,3.534,2.571,4.861c1.987,2.062,4.673,3.091,8.059,3.091c0.376,0,0.742-0.019,1.099-0.044
			c0.141-0.008,0.281-0.023,0.424-0.039c0.199-0.021,0.394-0.045,0.59-0.074c0.182-0.027,0.363-0.055,0.541-0.09
			c0.115-0.023,0.224-0.049,0.333-0.072c0.424-0.096,0.828-0.219,1.226-0.357c0.156-0.053,0.31-0.111,0.461-0.172
			c0.261-0.104,0.513-0.22,0.762-0.343c0.208-0.104,0.413-0.214,0.612-0.332c0.198-0.117,0.397-0.231,0.586-0.362l-0.012-0.01
			l-3.011-2.88c-0.05,0.037-0.104,0.062-0.154,0.101c-0.186,0.133-0.375,0.26-0.574,0.367c-0.029,0.018-0.06,0.037-0.09,0.055
			c-0.266,0.135-0.54,0.252-0.826,0.345c-0.019,0.006-0.038,0.011-0.057,0.017c-0.254,0.078-0.52,0.137-0.79,0.182
			c-0.066,0.013-0.133,0.023-0.201,0.031c-0.292,0.039-0.588,0.066-0.897,0.066c-0.008,0-0.014,0.001-0.022,0.001
			c-2.014,0-3.583-0.777-4.7-2.327c-0.098-0.135-0.169-0.288-0.257-0.426c-0.792-1.26-1.208-2.775-1.211-4.572
			c0.003-1.801,0.421-3.318,1.217-4.58c0.086-0.136,0.156-0.285,0.251-0.417c1.117-1.55,2.686-2.328,4.7-2.328
			c0.008,0,0.015,0.002,0.022,0.002c0.309,0,0.606,0.026,0.897,0.066c0.068,0.008,0.135,0.018,0.201,0.031
			c0.271,0.044,0.536,0.103,0.79,0.181c0.019,0.007,0.038,0.01,0.057,0.017c0.286,0.093,0.56,0.209,0.826,0.345
			c0.03,0.018,0.061,0.036,0.09,0.053c0.199,0.109,0.388,0.235,0.574,0.368c0.463,0.342,0.88,0.757,1.247,1.263
			c0.175,0.244,0.319,0.509,0.465,0.771c0.154,0.279,0.284,0.575,0.401,0.873c0.019,0.049,0.039,0.096,0.055,0.145
			c0.104,0.277,0.188,0.563,0.262,0.854c0.03,0.118,0.052,0.239,0.077,0.361c0.05,0.244,0.098,0.493,0.127,0.75
			c0.039,0.332,0.061,0.675,0.065,1.028c0.003,0.071,0.014,0.14,0.014,0.214c0,0.076-0.011,0.144-0.014,0.217
			c-0.004,0.352-0.027,0.694-0.065,1.026c-0.029,0.257-0.077,0.505-0.127,0.753c-0.025,0.119-0.047,0.24-0.077,0.357
			c-0.074,0.293-0.158,0.578-0.262,0.857c-0.017,0.047-0.036,0.095-0.055,0.143c-0.118,0.299-0.247,0.594-0.401,0.873
			c-0.002,0.004-0.002,0.006-0.005,0.008l3.297,3.151l0.02,0.019c0.297-0.353,0.56-0.729,0.805-1.115
			c0.028-0.043,0.053-0.086,0.081-0.131c0.135-0.219,0.258-0.444,0.376-0.675c0.047-0.091,0.093-0.183,0.139-0.276
			c0.088-0.186,0.166-0.376,0.245-0.569c0.052-0.136,0.106-0.269,0.157-0.406c0.057-0.158,0.102-0.323,0.152-0.485
			c0.051-0.173,0.104-0.346,0.148-0.525c0.034-0.136,0.06-0.276,0.089-0.418c0.043-0.204,0.088-0.408,0.122-0.619
			c0.02-0.133,0.032-0.271,0.048-0.405c0.027-0.22,0.058-0.439,0.074-0.669c0.017-0.219,0.02-0.445,0.027-0.674
			c0.004-0.139,0.014-0.273,0.014-0.415c0-0.007,0-0.013,0-0.021C62.989,34.619,62.989,34.615,62.989,34.606z"/>
	</g>
	<path fill="#1E1E1E" d="M63.953,24.252h4.787V45h-4.787V24.252z"/>
	<path fill="#1E1E1E" d="M63.953,20.52c0-1.191,1.077-2.167,2.395-2.167c1.314,0,2.392,0.976,2.392,2.167
		c0,1.191-1.077,2.168-2.392,2.168C65.03,22.688,63.953,21.711,63.953,20.52z"/>
	<path fill="#1E1E1E" d="M69.748,24.252h4.533v3.049l0.084,0.082c1.566-2.462,3.82-3.692,6.757-3.692
		c2.407,0,4.282,0.588,5.626,1.766c1.37,1.231,2.054,2.997,2.054,5.296V45H84.02V31.957c-0.113-3.103-1.527-4.656-4.241-4.656
		c-1.568,0-2.84,0.523-3.819,1.567c-0.951,1.044-1.427,2.343-1.427,3.892V45h-4.785V24.252z"/>
	<path fill="#1E1E1E" d="M88.51,24.252h3.61v-6.22h4.786v6.22h4.323v3.412h-4.323v11.075c0,1.071,0.108,1.78,0.335,2.128
		c0.306,0.48,0.965,0.723,1.971,0.723c0.897,0,1.569-0.055,2.018-0.162v3.532c-1.4,0.159-2.437,0.241-3.109,0.241
		c-2.348,0-3.958-0.455-4.825-1.364c-0.726-0.724-1.119-2.034-1.175-3.933v-12.24h-3.61V24.252z"/>
	<path fill="#1E1E1E" d="M105.256,38.139c0.113,1.871,0.842,3.357,2.186,4.455c1.314,1.043,2.965,1.564,4.953,1.564
		c1.789,0,3.285-0.282,4.489-0.844c1.567-0.75,2.354-1.927,2.354-3.532c0-1.55-0.771-2.688-2.311-3.411
		c-0.813-0.4-2.504-0.855-5.077-1.363c-2.41-0.455-4.115-0.989-5.124-1.605c-1.539-0.936-2.309-2.34-2.309-4.213
		c0-1.846,0.838-3.236,2.519-4.173c1.397-0.749,3.161-1.124,5.291-1.124c5.314,0,7.973,2.193,7.973,6.582h-1.593
		c0-3.504-2.128-5.259-6.38-5.259c-1.681,0-3.081,0.297-4.198,0.885c-1.343,0.721-2.017,1.751-2.017,3.089
		c0,1.443,0.758,2.514,2.269,3.21c0.672,0.32,2.308,0.763,4.91,1.323c2.546,0.455,4.351,1.018,5.416,1.686
		c1.481,0.963,2.222,2.423,2.222,4.374c0,2.035-0.935,3.546-2.812,4.536c-1.483,0.775-3.355,1.162-5.623,1.162
		c-2.549,0-4.604-0.627-6.172-1.884c-1.65-1.313-2.504-3.132-2.561-5.458H105.256z"/>
	<path fill="#1E1E1E" d="M132.625,25.697h-4.701v14.406c0,1.552,0.404,2.569,1.216,3.052c0.616,0.399,1.763,0.575,3.444,0.521V45
		c-1.961,0.134-3.429-0.08-4.409-0.643c-1.313-0.721-1.929-2.139-1.848-4.254V25.697h-3.986v-1.325h3.986v-6.42h1.597v6.42h4.701
		V25.697z"/>
	<path fill="#1E1E1E" d="M152.898,43.676c0.279,0,0.672-0.039,1.175-0.121v1.286c-0.419,0.105-0.854,0.159-1.301,0.159
		c-1.178,0-1.974-0.293-2.39-0.884c-0.337-0.426-0.507-1.136-0.507-2.126v-1.084h-0.084c-0.559,1.313-1.51,2.382-2.854,3.21
		c-1.484,0.91-3.22,1.364-5.206,1.364c-4.813,0-7.22-1.939-7.22-5.818c0-2.166,0.884-3.758,2.645-4.775
		c1.202-0.694,2.966-1.148,5.288-1.365c3.275-0.185,5.428-0.654,6.467-1.402c0.726-0.535,1.09-1.5,1.09-2.891
		c0-2.702-2.044-4.052-6.131-4.052c-1.958,0-3.509,0.468-4.656,1.404c-1.205,0.963-1.859,2.328-1.975,4.094h-1.594
		c0.225-4.549,2.966-6.823,8.225-6.823c2.1,0,3.821,0.416,5.166,1.245c1.566,0.936,2.35,2.313,2.35,4.132
		c0,1.661-0.435,2.905-1.3,3.733c-0.813,0.749-3.374,1.365-7.683,1.847c-4.197,0.481-6.295,2.101-6.295,4.854
		c0,1.312,0.475,2.383,1.426,3.211c1.008,0.857,2.419,1.285,4.238,1.285c3.107,0,5.375-1.045,6.802-3.132
		c0.866-1.256,1.301-2.555,1.301-3.891v-0.924c0.616-0.321,1.144-0.683,1.595-1.083v6.059c0,0.828,0.057,1.392,0.168,1.686
		C151.832,43.408,152.253,43.676,152.898,43.676z"/>
	<path fill="#1E1E1E" d="M164.482,25.697h-4.7v14.406c0,1.552,0.403,2.569,1.216,3.052c0.615,0.399,1.763,0.575,3.444,0.521V45
		c-1.96,0.134-3.429-0.08-4.409-0.643c-1.313-0.721-1.93-2.139-1.848-4.254V25.697h-3.986v-1.325h3.986v-6.42h1.597v6.42h4.7V25.697
		z"/>
	<path fill="#1E1E1E" d="M168.179,38.139c0.11,1.871,0.837,3.357,2.183,4.455c1.314,1.043,2.965,1.564,4.951,1.564
		c1.79,0,3.288-0.282,4.492-0.844c1.566-0.75,2.352-1.927,2.352-3.532c0-1.55-0.771-2.688-2.31-3.411
		c-0.812-0.4-2.505-0.855-5.077-1.363c-2.407-0.455-4.113-0.989-5.123-1.605c-1.541-0.936-2.308-2.34-2.308-4.213
		c0-1.846,0.84-3.236,2.517-4.173c1.398-0.749,3.162-1.124,5.291-1.124c5.314,0,7.973,2.193,7.973,6.582h-1.592
		c0-3.504-2.129-5.259-6.381-5.259c-1.678,0-3.08,0.297-4.198,0.885c-1.343,0.721-2.015,1.751-2.015,3.089
		c0,1.443,0.756,2.514,2.266,3.21c0.674,0.32,2.31,0.763,4.911,1.323c2.547,0.455,4.351,1.018,5.417,1.686
		c1.48,0.963,2.222,2.423,2.222,4.374c0,2.035-0.936,3.546-2.812,4.536c-1.484,0.775-3.357,1.162-5.625,1.162
		c-2.547,0-4.602-0.627-6.172-1.884c-1.648-1.313-2.501-3.132-2.559-5.458H168.179z"/>
</g>
<g>
	<path fill="#1E1E1E" d="M187.74,24.618c-1.293,0-2.394-0.429-3.306-1.287s-1.368-1.895-1.368-3.111
		c0-1.216,0.456-2.253,1.368-3.111c0.912-0.858,2.013-1.287,3.306-1.287c1.287,0,2.387,0.429,3.299,1.287
		c0.912,0.858,1.368,1.896,1.368,3.111c0,1.216-0.456,2.253-1.368,3.111S189.027,24.618,187.74,24.618z M187.74,16.337
		c-1.139,0-2.11,0.379-2.916,1.138c-0.807,0.759-1.209,1.673-1.209,2.745s0.402,1.985,1.209,2.742
		c0.806,0.756,1.777,1.135,2.916,1.135c1.138,0,2.109-0.378,2.913-1.135s1.206-1.67,1.206-2.742s-0.402-1.986-1.206-2.745
		S188.878,16.337,187.74,16.337z M190.008,22.97h-1.01l-0.647-1.343c-0.327-0.672-0.682-1.008-1.06-1.008h-0.548v2.352h-0.829
		v-5.595h1.67c0.694,0,1.229,0.137,1.605,0.411c0.375,0.274,0.563,0.645,0.563,1.114c0,0.384-0.132,0.71-0.396,0.979
		c-0.265,0.27-0.633,0.452-1.106,0.545v0.023c0.328,0.067,0.654,0.411,0.979,1.032L190.008,22.97z M186.743,18.044v1.912h0.892
		c0.818,0,1.227-0.32,1.227-0.962c0-0.344-0.109-0.588-0.33-0.733c-0.221-0.145-0.569-0.217-1.047-0.217H186.743z"/>
</g>
</svg>
