<?xml version="1.0" encoding="utf-8"?>
<!-- Generator: Adobe Illustrator 16.0.3, SVG Export Plug-In . SVG Version: 6.00 Build 0)  -->
<!DOCTYPE svg PUBLIC "-//W3C//DTD SVG 1.1//EN" "http://www.w3.org/Graphics/SVG/1.1/DTD/svg11.dtd">
<svg version="1.1" id="Layer_1" xmlns="http://www.w3.org/2000/svg" xmlns:xlink="http://www.w3.org/1999/xlink" x="0px" y="0px"
	 width="200px" height="60px" viewBox="0 0 200 60" enable-background="new 0 0 200 60" xml:space="preserve">
<g id="outlined_black">
	<path fill="#FCFCFC" d="M23.306,16.847c4.09,0,7.071,1.031,8.936,3.091c1.354,1.499,2.03,3.425,2.03,5.777
		c0,2.329-0.676,4.242-2.03,5.739c-1.864,2.032-4.844,3.051-8.936,3.051h-5.684v-4.093h5.369c1.504,0,2.753-0.334,3.746-1.004
		c1.264-0.83,1.896-2.075,1.896-3.732c0-3.158-1.852-4.736-5.551-4.736h-8.348V45.5H9.093V16.847H23.306z"/>
	<g>
		<path fill="#FCFCFC" d="M56.38,35.105c0-0.143-0.011-0.274-0.016-0.414c-0.007-0.229-0.011-0.455-0.028-0.676
			c-0.017-0.228-0.049-0.447-0.08-0.668c-0.019-0.139-0.03-0.271-0.051-0.404c-0.037-0.211-0.084-0.414-0.131-0.619
			c-0.032-0.143-0.059-0.283-0.096-0.418c-0.047-0.18-0.104-0.352-0.16-0.524c-0.054-0.163-0.103-0.327-0.163-0.485
			c-0.055-0.138-0.112-0.271-0.168-0.406c-0.085-0.193-0.169-0.383-0.264-0.569c-0.048-0.095-0.099-0.187-0.149-0.278
			c-0.127-0.229-0.257-0.455-0.404-0.675c-0.029-0.043-0.056-0.086-0.087-0.129c-0.263-0.387-0.546-0.765-0.865-1.116l-0.022,0.02
			c-0.142-0.154-0.278-0.313-0.432-0.459c-0.473-0.458-0.996-0.842-1.545-1.197l0.012-0.009c-0.202-0.129-0.416-0.243-0.624-0.359
			c-0.219-0.118-0.439-0.229-0.668-0.334c-0.266-0.124-0.538-0.239-0.815-0.343c-0.162-0.061-0.326-0.12-0.495-0.172
			c-0.428-0.139-0.862-0.264-1.318-0.357c-0.12-0.023-0.235-0.051-0.356-0.072c-0.194-0.035-0.389-0.063-0.588-0.09
			c-0.207-0.029-0.416-0.054-0.63-0.074c-0.153-0.016-0.305-0.031-0.456-0.041c-0.383-0.023-0.776-0.041-1.182-0.041
			c-3.64,0-6.526,1.029-8.663,3.091c-1.392,1.327-2.306,2.952-2.764,4.86c-0.226,0.926-0.348,1.907-0.348,2.965
			c0,0.009,0.001,0.013,0.001,0.019c0,0.009-0.001,0.015-0.001,0.021c0,1.058,0.121,2.041,0.348,2.966
			c0.458,1.907,1.372,3.532,2.764,4.86c2.136,2.063,5.023,3.09,8.663,3.09c0.405,0,0.798-0.019,1.182-0.043
			c0.152-0.008,0.303-0.022,0.456-0.039c0.214-0.021,0.423-0.045,0.634-0.073c0.196-0.027,0.39-0.056,0.582-0.091
			c0.124-0.022,0.241-0.049,0.358-0.071c0.456-0.097,0.89-0.22,1.318-0.356c0.167-0.054,0.333-0.111,0.495-0.173
			c0.281-0.104,0.551-0.22,0.819-0.343c0.224-0.104,0.444-0.214,0.659-0.332c0.212-0.117,0.426-0.23,0.629-0.361l-0.013-0.011
			l-3.236-2.88c-0.054,0.037-0.111,0.063-0.166,0.102c-0.2,0.133-0.402,0.26-0.617,0.366c-0.031,0.019-0.064,0.037-0.097,0.056
			c-0.286,0.136-0.581,0.252-0.888,0.346c-0.021,0.006-0.041,0.011-0.061,0.017c-0.273,0.078-0.559,0.138-0.85,0.183
			c-0.07,0.014-0.143,0.022-0.215,0.031c-0.313,0.039-0.633,0.065-0.964,0.065c-0.009,0-0.015,0.001-0.024,0.001
			c-2.165,0-3.852-0.777-5.052-2.327c-0.105-0.135-0.182-0.288-0.276-0.426c-0.852-1.261-1.299-2.774-1.303-4.572
			c0.004-1.801,0.453-3.317,1.309-4.58c0.092-0.136,0.167-0.284,0.27-0.417c1.2-1.55,2.887-2.328,5.052-2.328
			c0.009,0,0.017,0.002,0.024,0.002c0.332,0,0.652,0.026,0.964,0.066c0.073,0.008,0.145,0.018,0.215,0.031
			c0.292,0.044,0.577,0.103,0.85,0.181c0.021,0.007,0.041,0.011,0.061,0.017c0.308,0.094,0.603,0.209,0.888,0.346
			c0.032,0.018,0.065,0.035,0.097,0.053c0.214,0.109,0.417,0.234,0.617,0.368c0.499,0.342,0.946,0.757,1.341,1.263
			c0.188,0.244,0.343,0.51,0.5,0.771c0.166,0.279,0.306,0.574,0.431,0.873c0.02,0.05,0.042,0.097,0.059,0.146
			c0.111,0.277,0.202,0.563,0.282,0.854c0.032,0.119,0.056,0.24,0.083,0.361c0.053,0.243,0.104,0.492,0.136,0.75
			c0.043,0.332,0.066,0.676,0.07,1.027c0.003,0.07,0.015,0.141,0.015,0.214c0,0.076-0.012,0.146-0.015,0.218
			c-0.004,0.352-0.029,0.693-0.07,1.025c-0.031,0.257-0.083,0.505-0.136,0.753c-0.027,0.119-0.051,0.24-0.083,0.356
			c-0.08,0.293-0.17,0.578-0.282,0.856c-0.019,0.048-0.039,0.095-0.059,0.144c-0.127,0.3-0.266,0.595-0.431,0.873
			c-0.003,0.004-0.003,0.006-0.006,0.009l3.544,3.149l0.021,0.021c0.319-0.354,0.602-0.729,0.865-1.115
			c0.03-0.043,0.058-0.086,0.087-0.131c0.145-0.22,0.277-0.444,0.404-0.677c0.05-0.09,0.1-0.182,0.149-0.274
			c0.095-0.187,0.178-0.376,0.263-0.567c0.056-0.138,0.114-0.271,0.169-0.406c0.061-0.158,0.109-0.323,0.163-0.485
			c0.056-0.173,0.112-0.347,0.159-0.524c0.038-0.137,0.065-0.275,0.096-0.418c0.046-0.205,0.095-0.408,0.131-0.619
			c0.022-0.133,0.034-0.271,0.052-0.404c0.029-0.221,0.063-0.439,0.079-0.669c0.019-0.22,0.021-0.445,0.029-0.675
			c0.005-0.139,0.016-0.272,0.016-0.416c0-0.006,0-0.012,0-0.021C56.38,35.119,56.38,35.115,56.38,35.105z"/>
	</g>
	<path fill="#FCFCFC" d="M57.416,24.752h5.146V45.5h-5.146V24.752z"/>
	<path fill="#FCFCFC" d="M57.416,21.02c0-1.191,1.158-2.167,2.575-2.167c1.413,0,2.571,0.976,2.571,2.167s-1.158,2.168-2.571,2.168
		C58.574,23.188,57.416,22.211,57.416,21.02z"/>
	<path fill="#FCFCFC" d="M63.645,24.752h4.873v3.049l0.091,0.082c1.684-2.462,4.106-3.691,7.263-3.691
		c2.587,0,4.603,0.588,6.047,1.766c1.473,1.23,2.208,2.997,2.208,5.296V45.5h-5.14V32.457c-0.122-3.104-1.642-4.656-4.561-4.656
		c-1.685,0-3.053,0.523-4.104,1.567c-1.022,1.044-1.533,2.343-1.533,3.892V45.5h-5.145L63.645,24.752L63.645,24.752z"/>
	<path fill="#FCFCFC" d="M83.813,24.752h3.881v-6.22h5.145v6.22h4.646v3.412h-4.646v11.075c0,1.071,0.115,1.78,0.36,2.128
		c0.329,0.48,1.037,0.723,2.118,0.723c0.965,0,1.688-0.055,2.17-0.162v3.532c-1.504,0.159-2.621,0.241-3.342,0.241
		c-2.524,0-4.254-0.455-5.187-1.364c-0.781-0.724-1.203-2.034-1.263-3.933v-12.24h-3.881L83.813,24.752L83.813,24.752z"/>
	<path fill="#FCFCFC" d="M101.814,38.639c0.122,1.871,0.905,3.357,2.35,4.455c1.413,1.043,3.189,1.564,5.326,1.564
		c1.922,0,3.53-0.282,4.824-0.844c1.685-0.75,2.531-1.929,2.531-3.532c0-1.55-0.83-2.688-2.486-3.411
		c-0.874-0.4-2.692-0.855-5.456-1.363c-2.591-0.455-4.424-0.988-5.508-1.605c-1.653-0.936-2.483-2.34-2.483-4.211
		c0-1.846,0.9-3.236,2.708-4.174c1.503-0.748,3.4-1.123,5.689-1.123c5.711,0,8.57,2.192,8.57,6.582h-1.712
		c0-3.504-2.288-5.26-6.858-5.26c-1.809,0-3.313,0.297-4.513,0.885c-1.445,0.722-2.17,1.752-2.17,3.09
		c0,1.442,0.815,2.514,2.44,3.209c0.723,0.32,2.481,0.764,5.278,1.322c2.735,0.455,4.677,1.02,5.822,1.688
		c1.59,0.963,2.388,2.423,2.388,4.374c0,2.034-1.005,3.546-3.022,4.534c-1.594,0.775-3.606,1.162-6.043,1.162
		c-2.742,0-4.951-0.627-6.636-1.883c-1.774-1.313-2.693-3.133-2.754-5.459H101.814z"/>
	<path fill="#FCFCFC" d="M131.236,26.197h-5.054v14.406c0,1.551,0.435,2.568,1.308,3.051c0.661,0.4,1.894,0.576,3.702,0.521V45.5
		c-2.109,0.134-3.688-0.08-4.74-0.643c-1.412-0.723-2.073-2.141-1.986-4.254V26.197h-4.285v-1.325h4.285v-6.42h1.717v6.42h5.054
		V26.197L131.236,26.197z"/>
	<path fill="#FCFCFC" d="M153.029,44.176c0.298,0,0.723-0.039,1.264-0.121v1.286c-0.452,0.104-0.919,0.159-1.4,0.159
		c-1.267,0-2.122-0.293-2.57-0.884c-0.362-0.427-0.545-1.136-0.545-2.126v-1.084h-0.09c-0.602,1.313-1.624,2.382-3.069,3.21
		c-1.594,0.909-3.462,1.364-5.596,1.364c-5.174,0-7.762-1.939-7.762-5.818c0-2.166,0.95-3.758,2.844-4.775
		c1.291-0.693,3.189-1.146,5.684-1.365c3.521-0.185,5.837-0.652,6.953-1.4c0.78-0.535,1.173-1.5,1.173-2.891
		c0-2.703-2.198-4.053-6.592-4.053c-2.104,0-3.771,0.469-5.004,1.404c-1.296,0.963-1.997,2.328-2.125,4.094h-1.714
		c0.243-4.549,3.189-6.822,8.843-6.822c2.26,0,4.107,0.416,5.555,1.244c1.681,0.937,2.525,2.313,2.525,4.133
		c0,1.662-0.467,2.904-1.397,3.732c-0.875,0.749-3.628,1.365-8.261,1.848c-4.51,0.48-6.767,2.102-6.767,4.854
		c0,1.313,0.512,2.383,1.535,3.211c1.083,0.855,2.6,1.285,4.554,1.285c3.34,0,5.777-1.045,7.312-3.133
		c0.931-1.256,1.399-2.555,1.399-3.892v-0.924c0.662-0.321,1.232-0.683,1.716-1.083v6.059c0,0.828,0.063,1.394,0.182,1.688
		C151.882,43.908,152.336,44.176,153.029,44.176z"/>
	<path fill="#FCFCFC" d="M165.481,26.197h-5.053v14.406c0,1.551,0.434,2.568,1.308,3.051c0.66,0.4,1.896,0.576,3.701,0.521V45.5
		c-2.105,0.134-3.685-0.08-4.739-0.643c-1.41-0.723-2.074-2.141-1.985-4.254V26.197h-4.286v-1.325h4.286v-6.42h1.715v6.42h5.054
		V26.197L165.481,26.197z"/>
	<path fill="#FCFCFC" d="M169.456,38.639c0.117,1.871,0.899,3.357,2.345,4.455c1.413,1.043,3.189,1.564,5.322,1.564
		c1.927,0,3.535-0.282,4.829-0.844c1.684-0.75,2.529-1.929,2.529-3.532c0-1.55-0.828-2.688-2.483-3.411
		c-0.873-0.4-2.693-0.855-5.458-1.363c-2.586-0.455-4.42-0.988-5.507-1.605c-1.658-0.936-2.48-2.34-2.48-4.211
		c0-1.846,0.903-3.236,2.704-4.174c1.504-0.748,3.398-1.123,5.688-1.123c5.712,0,8.571,2.192,8.571,6.582h-1.712
		c0-3.504-2.289-5.26-6.859-5.26c-1.805,0-3.311,0.297-4.511,0.885c-1.446,0.722-2.169,1.752-2.169,3.09
		c0,1.442,0.813,2.514,2.438,3.209c0.725,0.32,2.482,0.764,5.278,1.322c2.738,0.455,4.677,1.02,5.822,1.688
		c1.59,0.963,2.391,2.423,2.391,4.374c0,2.034-1.008,3.546-3.025,4.534c-1.594,0.775-3.607,1.162-6.047,1.162
		c-2.737,0-4.945-0.627-6.634-1.883c-1.77-1.313-2.688-3.133-2.752-5.459H169.456z"/>
</g>
<g>
	<path fill="#FCFCFC" d="M190.482,25.118c-1.39,0-2.573-0.429-3.554-1.287c-0.981-0.858-1.471-1.895-1.471-3.111
		c0-1.216,0.489-2.253,1.471-3.111c0.98-0.858,2.164-1.287,3.554-1.287c1.384,0,2.565,0.429,3.547,1.287
		c0.98,0.858,1.471,1.896,1.471,3.111c0,1.216-0.49,2.253-1.471,3.111C193.048,24.689,191.866,25.118,190.482,25.118z
		 M190.482,16.837c-1.224,0-2.268,0.379-3.134,1.138c-0.868,0.759-1.3,1.673-1.3,2.745c0,1.072,0.432,1.985,1.3,2.742
		c0.866,0.756,1.91,1.136,3.134,1.136c1.223,0,2.269-0.379,3.132-1.136s1.297-1.67,1.297-2.742c0-1.072-0.434-1.986-1.297-2.745
		C192.751,17.216,191.705,16.837,190.482,16.837z M192.92,23.47h-1.084l-0.696-1.343c-0.353-0.672-0.733-1.008-1.14-1.008h-0.589
		v2.352h-0.891v-5.595h1.794c0.745,0,1.321,0.137,1.727,0.411c0.403,0.274,0.604,0.645,0.604,1.114c0,0.384-0.142,0.71-0.426,0.979
		c-0.285,0.27-0.681,0.452-1.188,0.545v0.023c0.353,0.067,0.703,0.411,1.054,1.032L192.92,23.47z M189.411,18.544v1.912h0.958
		c0.881,0,1.318-0.32,1.318-0.962c0-0.344-0.115-0.588-0.353-0.733c-0.239-0.145-0.611-0.217-1.127-0.217H189.411z"/>
</g>
</svg>
